<svg width="40" height="40" viewBox="0 0 40 40" fill="none" xmlns="http://www.w3.org/2000/svg">
<g id="CaretRight">
<path id="Vector" d="M28.3843 20.8843L15.8843 33.3843C15.7682 33.5005 15.6303 33.5926 15.4786 33.6555C15.3268 33.7183 15.1642 33.7507 15 33.7507C14.8357 33.7507 14.6731 33.7183 14.5213 33.6555C14.3696 33.5926 14.2317 33.5005 14.1156 33.3843C13.9994 33.2682 13.9073 33.1303 13.8445 32.9786C13.7816 32.8268 13.7493 32.6642 13.7493 32.5C13.7493 32.3357 13.7816 32.1731 13.8445 32.0213C13.9073 31.8696 13.9994 31.7317 14.1156 31.6156L25.7328 20L14.1156 8.38434C13.881 8.14979 13.7493 7.83167 13.7493 7.49996C13.7493 7.16826 13.881 6.85014 14.1156 6.61559C14.3501 6.38104 14.6683 6.24927 15 6.24927C15.3317 6.24927 15.6498 6.38104 15.8843 6.61559L28.3843 19.1156C28.5006 19.2317 28.5928 19.3695 28.6557 19.5213C28.7186 19.673 28.7509 19.8357 28.7509 20C28.7509 20.1642 28.7186 20.3269 28.6557 20.4786C28.5928 20.6304 28.5006 20.7682 28.3843 20.8843Z" fill="#C4C6C5"/>
</g>
</svg>
