<svg width="170" height="231" viewBox="0 0 170 231" fill="none" xmlns="http://www.w3.org/2000/svg">
<g id="Feather" opacity="0.5" clip-path="url(#clip0_96_406)">
<path id="Vector" d="M23.4683 213.747C24.8281 211.765 25.228 211.863 29.2905 208.057C35.9465 201.902 42.29 195.418 48.297 188.628C59.5408 175.843 69.5274 162.004 78.1184 147.304C78.8926 145.981 79.8776 144.298 79.988 144.109C80.0061 144.078 83.4418 137.877 84.7679 135.21C99.2519 106.922 106.487 81.3572 126.857 18.1558C127.124 17.3207 127.505 16.5263 127.989 15.7949C127.952 16.6754 127.794 17.5466 127.517 18.3833C105.931 85.3814 99.4274 108.139 85.3843 135.525C83.9756 138.359 80.6077 144.419 80.599 144.44C80.2152 145.096 79.0819 147.033 78.7229 147.647C64.6971 171.706 46.9365 193.383 26.1061 211.867C25.3309 212.628 24.4407 213.262 23.4683 213.747Z" fill="#BD8180"/>
<path id="Vector_2" d="M24.1179 214.6C23.96 214.605 23.8029 214.574 23.6588 214.509C23.5146 214.445 23.3871 214.348 23.2861 214.226C22.8583 213.693 22.5401 213.081 22.3497 212.424C22.2896 212.224 22.2405 212.022 22.2027 211.816C22.0778 211.144 22.0851 210.454 22.2241 209.785C22.2593 209.63 22.3293 209.486 22.4289 209.363C22.5285 209.239 22.655 209.141 22.7986 209.074C22.9153 209.341 22.9536 209.636 22.9091 209.925C22.7787 210.598 22.7935 211.291 22.9524 211.958C23.1113 212.625 23.4107 213.251 23.8306 213.793C24.0031 214.028 24.103 214.309 24.1179 214.6Z" fill="#BD8180"/>
<path id="Vector_3" d="M21.7214 210.65C22.7361 209.226 22.9233 209.158 25.7736 206.714C26.9045 205.743 25.9874 206.574 31.1062 201.868C81.1489 154.277 103.001 89.1239 123.833 24.3304C124.478 22.3306 124.55 21.9114 125.44 20.4745C125.328 22.1175 125.177 22.4336 124.502 24.5438C108.648 73.8541 92.2788 123.793 62.0858 166.784C52.4512 180.352 43.5605 190.996 31.5899 202.377C26.4651 207.088 27.3695 206.272 26.2357 207.241C23.2397 209.811 23.201 209.91 21.7214 210.65Z" fill="#BD8180"/>
<path id="Vector_4" d="M65.675 167.21C66.6643 167.17 67.655 167.234 68.6307 167.402C70.7589 167.682 72.9125 167.713 75.048 167.494C76.2567 167.365 77.4575 167.171 78.6452 166.912C81.7609 166.2 84.7345 164.968 87.4413 163.268C88.313 162.66 89.2469 162.146 90.2272 161.735C89.2128 162.978 89.0192 163.077 87.8411 163.876C85.0652 165.62 82.0141 166.881 78.8173 167.606C77.5944 167.868 76.3583 168.065 75.1144 168.195C72.926 168.419 70.7188 168.386 68.5382 168.096C67.5332 168 66.5587 167.698 65.675 167.21Z" fill="#BD8180"/>
<path id="Vector_5" d="M85.7924 161.321C88.1885 160.403 88.6997 160.298 89.0948 160.113C90.0575 159.713 90.9691 159.2 91.8102 158.584C92.8649 157.818 93.791 156.889 94.5538 155.832C94.5538 155.832 94.7647 155.536 94.768 155.531L95.3588 155.903C94.9805 156.52 94.393 156.981 93.7035 157.202C93.0771 157.413 93.099 157.415 93.1291 157.357C93.3058 156.538 93.0609 157.26 94.3748 153.891C94.7589 152.899 94.86 152.629 94.8837 152.602C96.1886 151.204 97.3859 149.711 98.4653 148.133C99.6391 146.424 99.5541 146.272 100.924 144.764C100.615 145.937 100.428 146.515 99.0457 148.529C97.9693 150.105 96.7755 151.597 95.4747 152.993C93.7622 157.353 94.3825 155.77 94.2437 156.123C94.4485 155.96 94.6216 155.76 94.7546 155.534L95.3438 155.909C95.0564 156.333 94.746 156.74 94.4141 157.13C93.0927 158.653 91.4457 159.859 89.5951 160.659C87.7983 161.445 86.8913 161.458 85.7924 161.321Z" fill="#BD8180"/>
<path id="Vector_6" d="M104.172 140.089C104.167 140.37 104.148 140.532 103.987 140.657C103.952 140.686 101.902 142.2 101.867 142.228C101.701 142.343 101.537 142.315 101.268 142.237C101.271 141.955 101.292 141.79 101.452 141.665C101.735 141.452 103.256 140.332 103.571 140.097C103.738 139.979 103.901 140.01 104.172 140.089Z" fill="#BD8180"/>
<path id="Vector_7" d="M104.002 139.438C103.879 139.377 103.774 139.284 103.698 139.169C103.685 139.139 103.683 139.092 103.679 139.105L103.211 139.376C103.085 139.442 102.952 139.379 102.739 139.247C102.727 138.995 102.737 138.849 102.858 138.772C103.819 138.201 103.342 138.493 104.489 137.818C104.368 139.225 104.407 139.191 104.27 139.296C104.186 139.354 104.096 139.401 104.002 139.438Z" fill="#BD8180"/>
<path id="Vector_8" d="M103.871 134.966C105.344 132.941 105.657 132.818 106.362 131.813C106.792 131.222 107.177 130.6 107.515 129.952L106.574 130.108C106.575 130.067 106.975 128.234 106.985 128.198C107.104 127.698 107.353 126.524 107.9 124.607C108.601 122.138 109.442 119.71 110.42 117.337C113.211 110.486 114.672 109.92 116.579 103.16C117.683 98.8402 117.174 99.1283 118.029 96.5753C118.206 97.4351 118.231 98.3194 118.102 99.1879C117.906 100.589 117.624 101.976 117.259 103.342C115.317 110.218 113.821 110.832 111.068 117.603C109.524 121.368 108.322 125.265 107.476 129.245C107.309 129.272 107.348 129.257 108.722 129.052C108.769 129.049 108.821 128.883 108.265 130.059C107.816 130.95 107.284 131.798 106.675 132.59C105.557 134.022 104.913 134.458 103.871 134.966Z" fill="#BD8180"/>
<path id="Vector_9" d="M56.3672 174.648C56.3813 172.041 56.9044 171.599 56.9934 167.456C57.0171 164.637 56.6219 161.831 55.8208 159.129C55.3046 157.447 54.6613 155.808 53.8964 154.224C53.7381 153.965 53.9934 154.194 54.1132 154.26L56.4628 155.797C56.446 155.787 54.9501 151.409 54.9454 151.391C54.9408 151.373 57.1478 152.302 57.1281 152.29C57.1158 152.544 57.3716 148.775 57.4072 148.701C57.5272 148.367 57.5679 148.258 57.6353 148.079C59.1767 143.844 59.4746 139.257 58.4938 134.859C57.6958 131.29 56.6722 129.637 55.1059 126.593C55.089 126.583 55.1059 126.593 55.2295 126.691C57.5839 128.666 57.4457 128.566 58.0939 129.176C60.2761 131.282 62.0933 133.736 63.4714 136.438L63.4883 136.448C64.1061 134.16 64.3023 131.779 64.0671 129.421C63.9617 128.471 63.9422 128.433 63.7201 127.147C63.7127 127.082 63.4696 127 65.5159 127.952C65.7723 128.076 66.2686 128.305 66.2344 128.293C66.2001 128.28 66.2886 125.985 66.335 125.416C66.62 120.888 67.496 116.416 68.9409 112.115C69.0597 111.777 69.1628 111.432 69.2928 111.1C70.521 107.768 70.7675 107.289 71.8075 106.034C71.3519 108.311 71.1228 107.973 69.6072 112.339C68.1797 116.582 67.3129 120.994 67.029 125.463C66.9359 126.564 66.9263 128.35 66.9159 129.395L66.899 129.385L64.6311 128.315C64.6222 128.272 64.6837 128.625 64.7756 129.359C65.0993 132.519 64.6563 135.336 63.668 138.355L62.9326 136.874C61.6875 134.418 60.0745 132.167 58.1493 130.199C57.4114 129.464 57.3523 129.43 57.3788 129.449L57.5201 129.744C57.7832 130.275 57.8199 130.406 58.2309 131.422C60.0132 136.237 60.2533 141.489 58.9179 146.448C58.6915 147.274 58.4194 148.086 58.1027 148.881L57.7812 153.247C57.745 153.309 57.9925 153.389 56.3222 152.699C56.2265 152.643 56.0958 152.608 56.1289 152.616L57.7059 157.205C57.7386 157.33 57.887 157.605 57.6701 157.414L55.4607 155.967C55.5922 156.123 56.351 158.358 56.3709 158.389C57.5129 161.978 57.9434 165.756 57.6383 169.511C57.6267 169.776 57.5286 170.732 57.3995 171.56C57.2836 172.652 56.9314 173.705 56.3672 174.648Z" fill="#BD8180"/>
<path id="Vector_10" d="M112.918 100.966C113.638 100.173 114.418 99.4382 115.251 98.7668C117.604 96.6933 119.485 94.1391 120.767 91.2766C120.785 91.2456 121.27 90.0935 121.239 90.128C121.097 90.1698 120.776 90.273 120.155 90.431C120.155 90.431 120.21 89.8324 120.211 89.8178C120.304 88.9696 120.469 88.1309 120.707 87.3113C120.705 87.3667 120.69 85.79 120.824 84.2435C120.942 82.8553 121.147 81.4759 121.439 80.1134C121.617 79.252 121.948 78.4295 122.417 77.6854C122.299 80.9871 121.427 81.7089 121.416 87.371C121.226 88.0704 121.076 88.7799 120.966 89.4961L122.372 89.0944C122.372 89.0944 122.315 89.2573 122.313 89.2674C121.781 90.7249 121.876 90.5046 121.418 91.5781C120.095 94.5336 118.149 97.1682 115.713 99.3014C114.924 100.067 113.967 100.637 112.918 100.966Z" fill="#BD8180"/>
<path id="Vector_11" d="M120.249 80.7704C121.187 78.1146 121.785 78.2679 124.233 72.8375C126.006 68.8061 127.224 64.5528 127.853 60.1942C127.859 60.1449 127.866 60.1717 127.866 60.1717L127.858 60.1858C128.405 60.4644 127.111 59.802 127.246 59.8693C127.264 59.8383 129.505 52.5978 129.489 52.626C129.3 50.8597 129.222 49.0834 129.253 47.3073C129.315 42.4875 130.529 37.321 131.391 35.5241C131.578 35.1651 131.793 34.8372 132.04 34.4529C131.997 34.9149 131.951 35.2963 131.877 35.6876C131.658 37.0561 130.045 41.176 129.947 47.3163C129.911 49.1154 129.994 50.915 130.195 52.7031C130.143 52.8766 128.274 58.8727 127.918 60.0626L127.306 59.7461C127.306 59.7461 128.761 57.8274 128.915 57.6416C128.919 57.6813 128.651 59.8374 128.326 61.8318C127.636 65.7163 126.486 69.505 124.9 73.1181C124.126 74.8887 123.245 76.6106 122.261 78.2743C121.752 79.2243 121.07 80.0708 120.249 80.7704Z" fill="#BD8180"/>
<path id="Vector_12" d="M76.3926 118.531C75.2095 117.234 75.081 116.834 74.4128 115.419C74.1924 114.95 74.1839 114.945 74.0871 114.684C71.9411 109.625 70.8307 104.188 70.8212 98.6925C70.8176 96.6195 70.9884 95.0491 71.0674 94.1392C71.3698 91.4055 71.9619 88.7117 72.8337 86.103C72.9813 85.6377 72.9277 85.7423 73.0896 85.6141L73.6199 85.2177C75.5494 83.6584 77.0025 81.5887 77.8138 79.2442C78.3939 77.5165 78.1402 77.7951 78.8771 74.844C79.2108 76.2107 79.1383 76.7995 78.8719 78.1136C78.758 78.5704 78.6205 79.021 78.4599 79.4635C77.0806 83.7582 73.4993 86.1599 73.5243 86.1367C73.0953 87.404 72.7322 88.6926 72.4366 89.9974C72.4069 90.1387 72.0228 91.9962 71.9844 92.3781C71.6825 94.5407 71.7555 93.8994 71.6149 95.5215C71.3397 98.9908 71.5204 102.481 72.1522 105.903C72.6899 108.82 73.5455 111.668 74.7037 114.398C74.7912 114.623 74.7956 114.622 75.0327 115.128C75.9562 117.036 76.062 117.249 76.3926 118.531Z" fill="#BD8180"/>
<path id="Vector_13" d="M81.2938 88.7738C80.4788 87.0801 80.4626 86.6171 80.0437 83.5492C79.2594 76.9514 79.6755 70.2658 81.2718 63.8157C81.4406 63.185 81.6031 62.6037 81.736 62.073C82.5032 59.5478 82.438 59.7175 82.4733 59.7797C83.364 60.6788 83.6523 60.9608 83.6242 60.9444C83.5961 60.9279 84.9846 58.7549 85.5551 57.8378C87.2504 56.1322 88.8144 54.3009 90.2337 52.3595C90.7529 51.6657 93.8069 46.7107 96.3344 41.0283C98.4647 36.2055 98.1016 36.1481 99.4235 34.1212C99.2697 35.8111 99.039 36.2506 98.3946 37.9331C97.9791 38.9598 97.6836 39.7165 96.9762 41.3131C94.4963 46.8949 91.3465 52.0394 90.8063 52.7626C89.3769 54.7125 87.8055 56.5543 86.1052 58.273C83.4593 62.5371 83.778 62.0698 83.7133 62.0319L82.7637 61.072C80.5282 68.3113 79.8365 75.9389 80.7335 83.4615C81.2284 87.0387 81.3576 86.9858 81.2938 88.7738Z" fill="#BD8180"/>
<path id="Vector_14" d="M129.559 34.3164C129.779 33.7988 129.68 33.9867 130.513 31.9496C130.69 31.4992 130.834 31.0368 130.945 30.5659C130.945 30.5659 130.99 30.5923 130.798 30.4803C130.567 30.2955 130.409 30.0343 130.353 29.7436C130.222 29.0508 130.641 28.4834 130.896 27.6655C132.47 22.8384 129.615 17.2117 130.253 12.0935C130.359 11.2214 130.58 10.367 130.908 9.55218C132.133 10.2232 131.243 9.74814 131.511 9.90457C128.889 13.6616 129.024 14.4963 127.325 16.7556C127.435 15.8846 127.693 15.0389 128.089 14.2551C128.916 12.5989 129.869 11.0088 130.94 9.49869L131.552 9.83419C131.245 10.5879 131.043 11.3804 130.952 12.1892C130.326 17.1662 133.204 22.875 131.579 27.9063C131.351 28.6383 130.974 29.2376 131.056 29.6261C131.081 29.7514 131.149 29.8642 131.247 29.9456C131.311 30.0053 131.533 29.9994 131.756 30.0126C131.843 29.9993 131.801 30.058 131.795 30.1C131.376 31.9405 131.016 33.1053 129.559 34.3164Z" fill="#BD8180"/>
<path id="Vector_15" d="M125.719 16.7759C124.805 15.108 125.075 15.7382 122.11 4.69568C117.073 13.4335 119.945 8.45485 119.014 10.0645C119.014 10.0645 118.424 8.49087 118.429 8.48243C118.429 8.48243 118.429 8.48243 118.419 8.49932C118.249 8.64105 118.049 8.74101 117.834 8.79112C117.619 8.84123 117.395 8.8401 117.181 8.78781C116.489 9.74281 115.848 10.7342 115.262 11.7577C113.747 14.4417 112.632 17.3318 111.95 20.337C111.606 21.7908 111.681 22.1524 110.984 23.9967C110.833 22.8086 110.8 22.1472 111.263 20.1808C111.962 17.1092 113.103 14.1554 114.652 11.4122C115.341 10.1976 116.104 9.02582 116.935 7.90339C116.947 7.88368 116.975 7.92644 116.994 7.93797C117.373 8.12951 117.37 8.11612 117.486 8.12377C117.637 8.1245 117.785 8.07914 117.91 7.99374C118.02 7.90811 118.106 7.79612 118.161 7.66817C118.267 7.28045 118.37 6.91739 118.465 6.58014C118.494 6.62736 118.597 6.92211 119.146 8.41847C119.158 8.39876 122.236 3.04634 122.325 2.89431C122.342 2.86616 122.507 3.55234 123.223 6.20865C125.66 15.2036 125.681 14.8644 125.719 16.7759Z" fill="#BD8180"/>
<path id="Vector_16" d="M112.37 13.5876C110.722 16.5008 110.113 16.8583 109.301 19.7694C109.057 20.7361 108.917 21.7261 108.884 22.7226C108.865 23.7694 108.803 24.3602 108.725 25.2746C108.347 24.4692 108.165 23.5856 108.193 22.6962C108.22 21.6466 108.366 20.6034 108.626 19.5862C108.786 18.9781 108.983 18.3803 109.216 17.7963C109.415 17.3026 109.642 16.8211 109.898 16.3545C110.746 14.7614 111.432 14.1837 112.37 13.5876Z" fill="#BD8180"/>
<path id="Vector_17" d="M108.145 19.6529C107.545 22.325 107.28 22.0751 106.588 24.8977C105.2 24.8416 106.216 24.8878 105.894 24.8696L105.883 24.7914L105.818 24.258C105.829 24.3026 103.789 27.1827 101.473 31.5415C100.399 33.5846 100.314 33.8524 99.2814 35.1002C99.5991 33.5628 99.8342 33.1222 100.852 31.2084C102.487 28.1544 104.293 25.195 106.261 22.3444C106.274 22.3862 106.554 24.568 106.584 24.8009L105.89 24.7729C105.933 24.6426 106.069 23.9631 106.392 22.9655C106.995 21.1414 107.333 20.6023 108.145 19.6529Z" fill="#BD8180"/>
<path id="Vector_18" d="M96.8766 109.231C96.9441 108.902 97.125 108.607 97.3876 108.397L101.269 105.411C101.533 105.213 101.859 105.113 102.189 105.129C102.122 105.459 101.941 105.754 101.678 105.964L97.7795 108.947C97.52 109.143 97.2012 109.243 96.8766 109.231Z" fill="#BD8180"/>
<path id="Vector_19" d="M128.398 58.2232C128.457 58.3371 128.489 58.4632 128.49 58.5915C128.492 58.7198 128.464 58.8467 128.407 58.9621C127.828 59.9996 127.078 60.9314 126.187 61.7178C126.087 61.7962 125.97 61.85 125.845 61.8748C125.72 61.8996 125.591 61.8947 125.469 61.8606C125.553 61.1543 125.627 61.3638 126.392 60.5413C126.727 60.1911 127.031 59.8131 127.302 59.4113C127.945 58.4873 127.732 58.4499 128.398 58.2232Z" fill="#BD8180"/>
<path id="Vector_20" d="M83.827 73.2729C83.2489 71.8009 83.1419 71.0732 83.0737 67.5415C83.0305 63.7863 83.1606 62.9441 83.6814 61.4727C84.0204 63.7797 83.7335 63.3209 83.7716 67.5303C83.8698 71.4499 84.0912 71.0844 83.827 73.2729Z" fill="#BD8180"/>
<path id="Vector_21" d="M71.5107 114.257C71.2482 114.138 71.0979 114.046 71.0358 113.836L70.3015 111.074C70.2855 110.966 70.2956 110.854 70.3309 110.75C70.3662 110.646 70.4258 110.552 70.5047 110.475C70.7672 110.595 70.9163 110.682 70.9768 110.895C71.0018 110.981 71.6772 113.572 71.7111 113.656C71.7627 113.872 71.6754 114.021 71.5107 114.257Z" fill="#BD8180"/>
<path id="Vector_22" d="M83.5519 139.4C83.7032 139.074 83.9557 138.805 84.2717 138.634L89.0418 136.157C89.3641 135.998 89.7294 135.946 90.0833 136.011C89.9319 136.337 89.6795 136.605 89.3634 136.776L84.5934 139.253C84.271 139.413 83.9057 139.465 83.5519 139.4Z" fill="#BD8180"/>
<path id="Vector_23" d="M85.701 134.777C85.6303 134.543 85.6042 134.407 85.6916 134.322C85.7381 134.281 86.8489 133.306 86.8966 133.27C86.9908 133.193 87.1239 133.236 87.3481 133.337C87.4173 133.574 87.4434 133.711 87.3559 133.795C87.3122 133.838 86.2003 134.809 86.1537 134.849C86.0567 134.925 85.9197 134.875 85.701 134.777Z" fill="#BD8180"/>
<path id="Vector_24" d="M86.153 161.46C85.6419 161.814 85.0682 162.067 84.4625 162.206C83.3059 162.552 82.1314 162.835 80.9443 163.054C79.887 163.24 79.6329 163.28 78.85 163.185C79.9957 162.744 79.8014 162.986 82.5598 162.359C84.7628 161.841 84.8681 161.597 86.153 161.46Z" fill="#BD8180"/>
<path id="Vector_25" d="M94.7905 155.498C94.0389 156.014 94.1796 155.896 90.4461 157.306C89.4244 157.683 89.2548 157.773 88.4286 157.868C89.1237 157.39 89.3207 157.35 90.3216 156.976C93.9758 155.618 93.8688 155.601 94.7905 155.498Z" fill="#BD8180"/>
<path id="Vector_26" d="M94.5015 154.43C94.074 154.889 93.5408 155.238 92.9482 155.444C92.8007 155.509 92.3523 155.682 92.1713 155.746C91.0184 156.141 90.6524 156.127 90.0887 156.077C91.2076 155.598 91.0779 155.748 92.0558 155.414C93.4642 154.911 93.2476 154.849 94.5015 154.43Z" fill="#BD8180"/>
<path id="Vector_27" d="M91.6392 135.289C92.1492 134.945 92.7003 134.667 93.2795 134.461C96.0472 133.295 98.6282 131.727 100.939 129.808C101.699 129.187 101.82 128.994 102.615 128.559C102.269 129.086 102.136 129.28 101.165 130.081C98.825 132.022 96.2129 133.611 93.4123 134.796C92.8582 135.072 92.2563 135.239 91.6392 135.289Z" fill="#BD8180"/>
<path id="Vector_28" d="M82.5414 141.469C82.9238 140.972 83.4172 140.571 83.9822 140.298C84.1772 140.178 84.7628 139.874 85.0055 139.763C86.0989 139.25 86.4609 139.212 87.0311 139.187C86.0353 139.772 86.0937 139.64 85.1555 140.081C83.9005 140.651 83.7811 140.932 82.5414 141.469Z" fill="#BD8180"/>
<path id="Vector_29" d="M81.4506 143.449C81.6997 143.108 81.6792 143.175 83.0895 142.644C84.5868 142.08 84.4699 142.079 84.8545 142.165C84.6054 142.506 84.6276 142.436 83.2128 142.969C81.7184 143.534 81.8353 143.535 81.4506 143.449Z" fill="#BD8180"/>
<path id="Vector_30" d="M74.2816 154.005C75.2871 153.539 75.0472 153.742 77.9261 152.993C80.664 152.233 80.4982 152.109 81.6603 151.996C81.0593 152.377 80.8147 152.563 78.0165 153.329C75.2709 154.051 75.0242 154.046 74.2816 154.005Z" fill="#BD8180"/>
<path id="Vector_31" d="M103.167 141.247C102.639 141.871 102.54 141.949 101.362 142.73C98.34 144.718 95.0419 146.249 91.5737 147.275C90.3674 147.638 90.1789 147.638 89.5078 147.642C90.2868 147.221 90.6366 147.191 91.4761 146.938C94.9106 145.923 98.1763 144.405 101.168 142.435C102.216 141.741 102.379 141.56 103.167 141.247Z" fill="#BD8180"/>
<path id="Vector_32" d="M96.8313 143.855C95.8474 144.413 95.9935 144.215 93.7348 145.067C91.5325 145.951 91.6853 146.071 90.5256 146.348C90.8432 146.048 91.2063 145.8 91.6015 145.613C92.7161 145.082 93.8604 144.616 95.0287 144.217C95.6015 143.985 96.213 143.862 96.8313 143.855Z" fill="#BD8180"/>
<path id="Vector_33" d="M77.9854 165.128C77.4371 165.421 76.8394 165.611 76.2224 165.687C73.651 166.186 71.0382 166.44 68.419 166.446C67.3932 166.443 67.1495 166.46 66.332 166.223C67.1261 166.06 67.3099 166.089 68.4173 166.094C71.0167 166.086 73.6095 165.832 76.1609 165.334C76.7568 165.182 77.3707 165.113 77.9854 165.128Z" fill="#BD8180"/>
<path id="Vector_34" d="M71.6602 166.608C70.7761 166.828 70.8393 166.778 67.8314 166.779C66.7748 166.777 66.5675 166.796 65.7444 166.601C66.5437 166.404 66.7211 166.417 67.8298 166.427C70.7975 166.436 70.7701 166.386 71.6602 166.608Z" fill="#BD8180"/>
<path id="Vector_35" d="M73.2854 149.231C73.1245 148.717 73.027 148.185 72.9951 147.648C72.7018 144.951 71.9348 142.327 70.7293 139.898C69.4659 137.292 68.2248 136.32 67.8954 134.578C67.8541 134.353 67.8607 134.122 67.9146 133.899C67.9686 133.677 68.0687 133.468 68.2085 133.287C67.8751 135.794 69.7051 136.612 71.5074 140.731C72.3619 142.671 72.9496 144.719 73.2545 146.817C73.4171 148.186 73.4505 148.368 73.2854 149.231Z" fill="#BD8180"/>
<path id="Vector_36" d="M74.5833 147.322C74.4088 146.734 74.3007 146.128 74.261 145.516C74.1807 144.872 74.032 144.067 73.9142 143.571C73.4268 141.499 73.0508 141.127 72.8231 139.838C73.2315 140.36 73.3641 140.566 73.7542 141.72C74.16 142.94 74.4471 144.197 74.6117 145.472C74.7295 146.084 74.7198 146.714 74.5833 147.322Z" fill="#BD8180"/>
<path id="Vector_37" d="M80.7411 136.565C80.5604 135.072 80.898 134.895 80.843 131.606C80.7524 128.171 80.4563 128.096 80.5822 126.673C80.7578 127.069 80.8719 127.49 80.9208 127.921C81.1985 130.185 81.2535 132.47 81.0848 134.744C81.0844 135.367 80.9679 135.984 80.7411 136.565Z" fill="#BD8180"/>
<path id="Vector_38" d="M79.7355 128.766C79.2716 127.467 79.3908 127.166 78.918 125.869C78.5019 124.643 78.3866 124.84 77.9616 123.462C78.2843 123.761 78.5478 124.119 78.7382 124.517C79.1072 125.284 79.397 126.087 79.6034 126.912C79.7912 127.511 79.8365 128.146 79.7355 128.766Z" fill="#BD8180"/>
<path id="Vector_39" d="M82.5954 97.6944C82.9483 98.4602 82.9414 98.698 83.2424 99.9398C84.7134 106.091 87.9007 111.659 87.9054 118.392C87.9134 119.925 87.7061 121.451 87.2893 122.926C86.8197 124.329 86.7116 124.617 86.1052 125.324C86.195 124.901 86.3256 124.488 86.495 124.09C89.6992 115.482 84.7531 107.728 82.9021 100.024C82.5703 98.6283 82.5482 98.4982 82.5954 97.6944Z" fill="#BD8180"/>
<path id="Vector_40" d="M85.6318 127.515C85.6007 126.901 85.6462 126.285 85.7673 125.682C86.3338 121.324 85.61 119.313 85.7078 117.673C85.9074 118.068 86.0418 118.493 86.1058 118.93C86.2802 120.146 86.3615 121.374 86.3489 122.602C86.339 123.651 86.266 124.699 86.1304 125.739C86.0813 126.358 85.912 126.961 85.6318 127.515Z" fill="#BD8180"/>
<path id="Vector_41" d="M78.6611 97.9358C78.3626 97.3417 78.2435 97.2418 77.5752 93.4573C77.0594 90.4828 76.7089 87.482 76.5251 84.4686C76.4966 84.034 76.5318 83.5975 76.6296 83.173C76.7658 83.586 76.8476 84.0149 76.8728 84.4491C77.4889 93.5466 78.7085 96.0854 78.6611 97.9358Z" fill="#BD8180"/>
<path id="Vector_42" d="M76.2463 89.7171C75.9225 89.1819 75.7229 88.5809 75.6622 87.9582C75.5111 87.0436 75.4411 86.1175 75.453 85.1905C75.4818 83.9338 75.5885 83.6675 75.7996 83.1259C75.9393 84.553 75.6123 85.5898 76.0153 87.923C76.1493 88.5123 76.2267 89.113 76.2463 89.7171Z" fill="#BD8180"/>
<path id="Vector_43" d="M112.97 112.945C112.576 113.697 112.49 113.798 111.519 114.779C108.77 117.547 105.509 119.754 101.918 121.277C101.517 121.451 101.09 121.558 100.655 121.596C101.787 120.778 102.766 120.727 105.514 119.051C107.611 117.787 109.545 116.269 111.271 114.532C112.154 113.635 112.283 113.416 112.97 112.945Z" fill="#BD8180"/>
<path id="Vector_44" d="M110.951 116.835C110.94 117.021 110.864 117.197 110.736 117.332C110.072 117.999 109.275 118.518 108.398 118.855C108.223 118.92 108.032 118.919 107.858 118.854C108.202 118.454 108.201 118.623 108.955 118.218C109.301 118.04 109.626 117.827 109.928 117.582C110.599 117.056 110.448 116.991 110.951 116.835Z" fill="#BD8180"/>
<path id="Vector_45" d="M118.428 96.9787C118.228 97.5723 117.9 98.1143 117.465 98.5658C116.365 99.8776 115.066 101.009 113.615 101.918C112.574 102.567 112.25 102.63 111.681 102.751C112.878 101.777 113.633 101.713 115.582 100.003C116.157 99.4865 116.697 98.931 117.197 98.3405C117.56 97.8462 117.973 97.3899 118.428 96.9787Z" fill="#BD8180"/>
<path id="Vector_46" d="M98.1897 108.091C98.5357 107.574 98.9785 107.129 99.4936 106.78C101.54 105.179 103.794 103.862 106.193 102.865C107.176 102.477 107.377 102.371 108.216 102.299C107.543 102.733 107.41 102.754 106.328 103.19C103.958 104.174 101.732 105.473 99.7108 107.054C99.2494 107.462 98.7383 107.811 98.1897 108.091Z" fill="#BD8180"/>
<path id="Vector_47" d="M96.2993 112.091C96.2315 112.311 96.1519 112.527 96.0608 112.738L95.8437 112.573C96.3733 111.855 98.4714 109.87 100.944 108.297C101.85 107.724 102.112 107.594 102.842 107.397C102.158 108.018 102.029 108.025 101.134 108.593C98.0483 110.567 96.6248 112.297 96.0504 112.762L95.8333 112.597C95.9784 112.419 96.134 112.25 96.2993 112.091Z" fill="#BD8180"/>
<path id="Vector_48" d="M99.3374 103.23C99.8543 102.418 99.373 102.956 105.751 96.9115C106.517 96.1886 106.652 96.0176 107.386 95.6011C106.933 96.311 106.768 96.4258 105.993 97.1628C99.6091 103.212 100.175 102.761 99.3374 103.23Z" fill="#BD8180"/>
<path id="Vector_49" d="M99.6186 101.271C100.047 100.456 99.7932 100.818 103.81 96.2827C104.51 95.494 104.63 95.3148 105.326 94.8343C104.936 95.5849 104.783 95.7108 104.071 96.5147C100.054 101.031 100.379 100.76 99.6186 101.271Z" fill="#BD8180"/>
<path id="Vector_50" d="M99.4788 96.8096C99.1909 96.0101 99.2321 95.9397 99.049 94.1735C98.4066 88.0936 97.3334 82.067 95.8374 76.1393C95.5674 75.0705 95.4974 74.9124 95.4878 74.083C95.8907 74.8213 95.9169 75.0219 96.1777 76.0549C97.6754 81.999 98.7504 88.0417 99.3948 94.1378C99.5652 95.8095 99.614 95.9326 99.4788 96.8096Z" fill="#BD8180"/>
<path id="Vector_51" d="M99.9267 92.0983C99.7928 91.4977 99.7415 90.8815 99.7742 90.267C99.7622 89.4286 99.7196 88.3455 99.6229 87.3744C99.2701 83.903 99.0138 84.0893 99.0503 82.6709C99.2524 83.0535 99.3939 83.4651 99.4697 83.8912C99.8682 85.9889 100.083 88.1174 100.111 90.2526C100.166 90.8739 100.103 91.5 99.9267 92.0983Z" fill="#BD8180"/>
<path id="Vector_52" d="M63.0368 165.682C62.9638 164.883 63.018 164.726 63.2009 163.238C63.4464 161.016 63.5089 158.778 63.3879 156.546C63.0266 150.764 62.1749 149.54 62.1632 147.855C62.5799 148.628 62.5849 148.775 62.832 149.838C63.8635 154.525 64.0716 159.356 63.447 164.116C63.4035 164.658 63.2646 165.188 63.0368 165.682Z" fill="#BD8180"/>
<path id="Vector_53" d="M64.2692 155.878C63.9023 154.749 64.0851 154.947 63.6914 152.895C63.2425 150.769 63.1287 151.054 63.0036 149.783C63.2564 150.14 63.4481 150.537 63.5706 150.958C63.8671 151.965 64.0928 152.993 64.2463 154.032C64.3796 154.64 64.3874 155.268 64.2692 155.878Z" fill="#BD8180"/>
<path id="Vector_54" d="M60.0572 169.09C59.8917 167.61 60.3783 166.326 59.9781 162.619C59.8485 161.549 59.7847 161.452 59.8436 160.537C60.1524 161.217 60.2033 161.466 60.3284 162.582C60.5 164.143 60.5303 165.717 60.4189 167.283C60.4194 167.903 60.2965 168.517 60.0572 169.09Z" fill="#BD8180"/>
<path id="Vector_55" d="M81.0778 172.821C80.1246 173.069 80.974 172.999 71.1462 173.117C68.996 173.144 68.0117 173.154 66.9516 173.184C62.9633 173.292 63.122 173.589 61.6772 173.469C62.0731 173.282 62.4967 173.159 62.9316 173.107C65.1928 172.794 68.8098 172.797 71.1457 172.77C80.9081 172.646 80.0992 172.589 81.0778 172.821Z" fill="#BD8180"/>
<path id="Vector_56" d="M74.1125 171.308C73.0556 171.623 73.6201 171.439 67.8154 171.875C62.2109 172.356 62.745 172.457 61.6366 172.311C62.422 172.015 62.5966 172.026 63.6904 171.907C65.496 171.72 66.683 171.628 67.7842 171.528C73.3525 171.109 73.3626 171.157 74.1125 171.308Z" fill="#BD8180"/>
<path id="Vector_57" d="M69.9127 170.79C69.0259 170.962 69.214 170.925 65.2726 170.72C64.221 170.664 64.0065 170.682 63.1984 170.436C64.0127 170.278 64.1887 170.313 65.2928 170.369C69.1682 170.577 69.0289 170.518 69.9127 170.79Z" fill="#BD8180"/>
<path id="Vector_58" d="M59.5563 176.177C59.9382 175.958 60.3564 175.81 60.7909 175.739C62.447 175.476 64.1376 175.526 65.7753 175.885C66.6706 176.079 67.544 176.362 68.3825 176.731C68.7838 176.91 69.1487 177.162 69.4589 177.474C68.1929 177.145 67.6927 176.663 65.7002 176.227C62.5899 175.564 61.0856 176.191 59.5563 176.177Z" fill="#BD8180"/>
<path id="Vector_59" d="M58.932 177.864C59.8319 177.914 59.6596 177.912 63.15 178.971C64.1584 179.282 64.3729 179.309 65.092 179.752C64.2677 179.708 64.1047 179.632 63.0458 179.311C59.6208 178.256 59.7106 178.335 58.932 177.864Z" fill="#BD8180"/>
<path id="Vector_60" d="M58.4794 177.901C59.0595 177.675 59.6787 177.568 60.3009 177.584C61.9091 177.513 63.5204 177.588 65.115 177.808C66.3272 177.977 66.5456 178.055 67.1461 178.346C66.2231 178.381 66.1216 178.302 65.0702 178.156C63.4964 177.938 61.906 177.863 60.3187 177.934C59.7065 177.998 59.0889 177.987 58.4794 177.901Z" fill="#BD8180"/>
<path id="Vector_61" d="M58.0631 179.317C58.6905 179.383 59.2885 179.616 59.7942 179.993C59.9687 180.095 60.2919 180.337 60.3488 180.382C60.7308 180.668 61.0887 180.985 61.419 181.329C61.728 181.647 61.9655 182.027 62.1158 182.444C61.782 182.173 61.4654 181.882 61.1678 181.572C59.7956 180.217 59.4473 180.289 58.0631 179.317Z" fill="#BD8180"/>
<path id="Vector_62" d="M57.5395 178.081C58.1666 178.061 58.7893 178.193 59.3541 178.466C60.895 179.096 62.2881 180.04 63.4449 181.237C63.7527 181.552 63.9958 181.924 64.1605 182.332C63.8146 182.074 63.4903 181.788 63.1908 181.478C62.0691 180.317 60.7162 179.404 59.2196 178.799C58.6422 178.603 58.0805 178.362 57.5395 178.081Z" fill="#BD8180"/>
<path id="Vector_63" d="M58.8249 177.272C58.899 177.145 58.9604 177.079 59.071 177.065L60.5125 176.88C60.6259 176.867 60.697 176.92 60.8071 177.022C60.7347 177.146 60.6733 177.212 60.5639 177.231L59.1195 177.414C59.0022 177.421 58.9339 177.37 58.8249 177.272Z" fill="#BD8180"/>
<path id="Vector_64" d="M56.6314 179.685C57.3828 179.814 57.7615 180.278 58.002 180.997C58.1791 181.498 58.1559 182.049 57.9372 182.535C57.8348 182.726 57.6922 182.892 57.5191 183.023C57.7898 182.451 57.8491 181.802 57.6866 181.191C57.5241 180.58 57.1502 180.046 56.6314 179.685Z" fill="#BD8180"/>
<path id="Vector_65" d="M55.1194 176.748C54.8583 176.189 54.5046 175.678 54.0732 175.236C53.5478 174.809 52.942 174.492 52.2918 174.304C52.7377 174.201 53.2056 174.264 53.6086 174.481C53.8625 174.617 54.0985 174.784 54.3109 174.979C54.8493 175.524 55.1414 175.948 55.1194 176.748Z" fill="#BD8180"/>
<path id="Vector_66" d="M56.179 174.93C56.1218 174.937 56.0638 174.931 56.0095 174.912C55.9552 174.892 55.9062 174.861 55.8662 174.819L54.9484 173.644C54.8786 173.55 54.8888 173.461 54.9158 173.318C54.973 173.311 55.0312 173.317 55.0855 173.336C55.1399 173.356 55.1889 173.388 55.2285 173.43L56.1491 174.607C56.207 174.682 56.2076 174.785 56.179 174.93Z" fill="#BD8180"/>
<path id="Vector_67" d="M126.159 62.6689C125.723 63.1045 125.235 63.4839 124.705 63.7984C124.148 64.1755 123.454 64.6911 123.046 65.0196C120.731 66.9227 121.129 66.8758 120.013 67.583C120.405 66.913 120.572 66.731 121.378 65.9858C122.361 65.0856 123.408 64.257 124.51 63.5063C125 63.1235 125.561 62.8392 126.159 62.6689Z" fill="#BD8180"/>
<path id="Vector_68" d="M127.014 61.1436C125.696 62.0539 124.235 62.2005 121.129 64.7446C120.361 65.3855 119.642 66.0823 118.976 66.8294C118.69 67.1558 118.369 67.4494 118.018 67.7049C118.188 67.3009 118.423 66.9276 118.714 66.6002C119.389 65.8394 120.119 65.1301 120.9 64.4781C122.228 63.37 123.693 62.4375 125.258 61.7035C125.799 61.3975 126.396 61.2068 127.014 61.1436Z" fill="#BD8180"/>
<path id="Vector_69" d="M107.563 78.5103C108.059 77.7345 107.893 77.9473 111.341 74.6744C112.105 73.9499 112.242 73.7805 112.974 73.3623C112.519 74.075 112.357 74.1915 111.582 74.9285C108.154 78.1983 108.378 78.0537 107.563 78.5103Z" fill="#BD8180"/>
<path id="Vector_70" d="M108.177 79.3987C108.262 78.976 108.254 79.0661 109.365 77.8981C110.475 76.73 110.395 76.7437 110.804 76.639C110.717 77.0528 110.729 76.9732 109.616 78.1397C108.503 79.3061 108.591 79.2973 108.177 79.3987Z" fill="#BD8180"/>
<path id="Vector_71" d="M115.847 84.3696C116.424 83.6678 116.319 83.8071 119.407 81.5133C120.258 80.8778 120.41 80.7357 121.187 80.4082C120.65 81.0614 120.47 81.1563 119.619 81.7962C116.523 84.0734 116.678 84.0135 115.847 84.3696Z" fill="#BD8180"/>
<path id="Vector_72" d="M119.386 84.4414C119.327 84.3235 119.301 84.2516 119.341 84.1768L119.904 83.2139C119.949 83.1379 120.027 83.127 120.159 83.121C120.221 83.2406 120.247 83.3125 120.205 83.3901L119.642 84.353C119.597 84.4172 119.521 84.4371 119.386 84.4414Z" fill="#BD8180"/>
<path id="Vector_73" d="M103.403 92.7949C103.898 92.0453 103.967 92.044 105.458 90.6714C106.234 89.9579 106.372 89.793 107.121 89.3774C106.665 90.0667 106.52 90.1595 105.703 90.917C104.235 92.2648 104.2 92.3619 103.403 92.7949Z" fill="#BD8180"/>
<path id="Vector_74" d="M113.679 57.8232C114.211 57.0688 113.959 57.3446 118.087 53.7699C118.872 53.0731 119.024 52.9164 119.777 52.5332C119.301 53.2109 119.156 53.3037 118.318 54.0335C114.204 57.5975 114.504 57.4067 113.679 57.8232Z" fill="#BD8180"/>
<path id="Vector_75" d="M115.054 54.5882C115.476 53.7959 115.607 53.7211 116.506 52.7131C117.212 51.9322 117.332 51.753 118.031 51.2814C117.644 52.0074 117.515 52.1128 116.765 52.948C115.88 53.9262 115.806 54.0909 115.054 54.5882Z" fill="#BD8180"/>
<path id="Vector_76" d="M124.329 42.3324C124.727 41.4318 124.381 41.985 129.505 35.3578C130.152 34.5232 130.258 34.3358 130.922 33.8137C130.589 34.5709 130.467 34.6814 129.785 35.5706C124.64 42.2198 125.087 41.7332 124.329 42.3324Z" fill="#BD8180"/>
<path id="Vector_77" d="M126.154 38.3404C126.402 37.5031 126.468 37.462 127.446 35.7898C127.667 35.408 127.939 35.0584 128.254 34.7509C128.142 35.1773 127.972 35.5862 127.747 35.9659C126.776 37.6007 126.76 37.7049 126.154 38.3404Z" fill="#BD8180"/>
<path id="Vector_78" d="M107.474 75.4348C107.312 74.8402 107.23 74.2268 107.23 73.6106C107.071 71.001 106.613 68.4182 105.867 65.9126C105.539 64.8518 105.456 64.6782 105.383 63.8796C105.83 64.561 105.882 64.7573 106.205 65.812C106.952 68.3484 107.41 70.9613 107.568 73.6007C107.651 74.2126 107.619 74.8346 107.474 75.4348Z" fill="#BD8180"/>
<path id="Vector_79" d="M107.712 69.0026C107.369 68.1937 107.397 68.1151 107.107 66.3434C106.954 65.3131 106.879 65.0991 106.95 64.2559C107.281 65.032 107.284 65.2339 107.456 66.2903C107.71 67.9281 107.791 68.081 107.712 69.0026Z" fill="#BD8180"/>
<path id="Vector_80" d="M106.211 43.2543C105.89 42.4395 105.907 42.3017 105.733 40.9382C105.268 37.2649 104.949 33.3293 104.751 29.4836C104.703 28.4235 104.664 28.2383 104.839 27.3961C105.237 28.7627 104.923 28.6851 105.49 35.1877C106.033 41.737 106.361 41.8228 106.211 43.2543Z" fill="#BD8180"/>
<path id="Vector_81" d="M107.495 34.9438C107.234 34.0992 107.286 34.4432 106.913 29.1915C106.841 28.1401 106.795 27.928 106.94 27.0985C107.197 27.8799 107.182 28.0529 107.259 29.1747C107.632 34.3359 107.657 34.0291 107.495 34.9438Z" fill="#BD8180"/>
<path id="Vector_82" d="M108.677 31.1228C108.46 30.2403 108.513 30.0668 108.51 28.9017C108.517 27.8511 108.494 27.6377 108.695 26.8176C108.895 27.6377 108.857 27.8311 108.864 28.9044C108.849 30.0597 108.9 30.2443 108.677 31.1228Z" fill="#BD8180"/>
<path id="Vector_83" d="M91.6205 61.0955C91.2735 60.2615 91.3616 60.5435 90.6675 55.9767C90.5196 54.9379 90.4552 54.7188 90.5305 53.8861C90.8534 54.6645 90.8561 54.8664 91.0159 55.9236C91.6872 60.3939 91.711 60.1659 91.6205 61.0955Z" fill="#BD8180"/>
<path id="Vector_84" d="M92.3986 57.0538C92.0848 56.1825 92.1499 56.3037 91.7603 52.6368C91.651 51.5903 91.6006 51.3795 91.7184 50.5452C92.0004 51.3224 91.9917 51.4987 92.1089 52.6027C92.4887 56.2411 92.5278 56.1355 92.3986 57.0538Z" fill="#BD8180"/>
<path id="Vector_85" d="M121.85 25.1313C121.583 24.2191 121.659 24.8118 121.368 17.1214C121.329 16.0707 121.292 15.8563 121.459 15.0283C121.693 15.8373 121.673 16.0378 121.714 17.1046C122.005 24.7688 122.046 24.1955 121.85 25.1313Z" fill="#BD8180"/>
<path id="Vector_86" d="M120.273 20.7359C120.133 19.8525 120.181 19.8162 120.347 17.7558C120.44 16.7065 120.429 16.4924 120.699 15.6945C120.823 16.5226 120.79 16.6768 120.697 17.7905C120.525 19.795 120.565 19.8823 120.273 20.7359Z" fill="#BD8180"/>
</g>
<defs>
<clipPath id="clip0_96_406">
<rect width="59.8421" height="232.501" fill="white" transform="matrix(-0.863125 -0.50499 -0.50499 0.863125 169.062 30.2197)"/>
</clipPath>
</defs>
</svg>
