<svg width="345" height="471" viewBox="0 0 345 471" fill="none" xmlns="http://www.w3.org/2000/svg">
<g opacity="0.5" clip-path="url(#clip0_96_319)">
<path d="M296.822 435.766C294.05 431.725 293.235 431.924 284.952 424.166C271.383 411.618 258.45 398.398 246.204 384.556C223.281 358.49 202.921 330.278 185.407 300.309C183.829 297.612 181.821 294.18 181.596 293.795C181.559 293.732 174.554 281.089 171.851 275.652C142.322 217.981 127.572 165.863 86.0444 37.0143C85.4992 35.3117 84.7227 33.6922 83.7366 32.201C83.8105 33.9962 84.1342 35.7723 84.6984 37.4782C128.706 174.067 141.964 220.463 170.594 276.295C173.466 282.072 180.332 294.426 180.35 294.47C181.132 295.807 183.443 299.756 184.175 301.007C212.769 350.057 248.977 394.25 291.444 431.932C293.025 433.484 294.839 434.778 296.822 435.766Z" fill="#BD8180"/>
<path d="M295.498 437.504C295.82 437.514 296.14 437.451 296.434 437.319C296.728 437.188 296.987 436.99 297.193 436.742C298.065 435.655 298.714 434.407 299.102 433.068C299.225 432.661 299.325 432.247 299.402 431.829C299.657 430.459 299.642 429.052 299.358 427.687C299.287 427.372 299.144 427.078 298.941 426.826C298.738 426.575 298.48 426.374 298.187 426.238C297.949 426.783 297.871 427.384 297.962 427.972C298.228 429.345 298.198 430.759 297.874 432.119C297.55 433.479 296.939 434.754 296.083 435.859C295.732 436.338 295.528 436.91 295.498 437.504Z" fill="#BD8180"/>
<path d="M300.384 429.452C298.315 426.549 297.933 426.41 292.122 421.427C289.817 419.448 291.686 421.143 281.251 411.547C179.229 314.525 134.68 181.697 92.2079 49.6028C90.8932 45.526 90.7475 44.6713 88.9334 41.7419C89.1603 45.0915 89.4679 45.7358 90.8451 50.038C123.167 150.567 156.538 252.376 218.093 340.024C237.735 367.685 255.86 389.384 280.265 412.587C290.713 422.191 288.869 420.527 291.18 422.503C297.288 427.743 297.367 427.943 300.384 429.452Z" fill="#BD8180"/>
<path d="M210.775 340.891C208.759 340.809 206.739 340.94 204.75 341.281C200.411 341.852 196.02 341.915 191.667 341.47C189.203 341.207 186.754 340.811 184.333 340.283C177.981 338.832 171.919 336.32 166.401 332.855C164.623 331.615 162.719 330.567 160.721 329.729C162.789 332.264 163.184 332.464 165.585 334.095C171.245 337.65 177.465 340.221 183.982 341.698C186.475 342.233 188.995 342.633 191.531 342.898C195.993 343.356 200.493 343.288 204.938 342.696C206.987 342.501 208.974 341.886 210.775 340.891Z" fill="#BD8180"/>
<path d="M169.762 328.885C164.877 327.013 163.835 326.798 163.03 326.422C161.067 325.607 159.208 324.561 157.494 323.305C155.343 321.743 153.455 319.85 151.9 317.694C151.9 317.694 151.47 317.091 151.463 317.079L150.259 317.838C151.03 319.097 152.228 320.036 153.634 320.486C154.911 320.918 154.866 320.921 154.805 320.803C154.444 319.134 154.944 320.606 152.265 313.737C151.482 311.714 151.276 311.164 151.228 311.108C148.567 308.26 146.126 305.214 143.926 301.998C141.533 298.513 141.706 298.204 138.914 295.13C139.543 297.521 139.924 298.699 142.743 302.806C144.937 306.018 147.371 309.059 150.023 311.905C153.514 320.795 152.249 317.567 152.532 318.288C152.115 317.954 151.762 317.547 151.491 317.087L150.29 317.851C150.876 318.715 151.508 319.545 152.185 320.34C154.879 323.445 158.237 325.904 162.009 327.535C165.673 329.136 167.522 329.164 169.762 328.885Z" fill="#BD8180"/>
<path d="M132.291 285.6C132.302 286.171 132.341 286.502 132.668 286.758C132.741 286.816 136.919 289.903 136.991 289.961C137.328 290.195 137.664 290.137 138.211 289.979C138.206 289.404 138.163 289.067 137.836 288.812C137.259 288.379 134.159 286.094 133.516 285.615C133.176 285.375 132.843 285.438 132.291 285.6Z" fill="#BD8180"/>
<path d="M132.638 284.272C132.889 284.147 133.103 283.958 133.258 283.725C133.283 283.663 133.289 283.568 133.297 283.594L134.251 284.145C134.507 284.28 134.779 284.152 135.214 283.882C135.236 283.368 135.217 283.071 134.971 282.915C133.011 281.75 133.983 282.345 131.646 280.97C131.892 283.838 131.813 283.769 132.092 283.983C132.262 284.1 132.446 284.197 132.638 284.272Z" fill="#BD8180"/>
<path d="M132.904 275.156C129.903 271.026 129.264 270.776 127.826 268.728C126.95 267.523 126.165 266.255 125.476 264.934L127.395 265.252C127.392 265.168 126.577 261.431 126.557 261.358C126.314 260.337 125.807 257.944 124.691 254.036C123.263 249.002 121.548 244.053 119.555 239.214C113.863 225.248 110.885 224.094 106.997 210.313C104.748 201.505 105.784 202.093 104.041 196.888C103.68 198.641 103.629 200.444 103.891 202.214C104.292 205.07 104.866 207.898 105.612 210.684C109.569 224.702 112.62 225.952 118.232 239.757C121.38 247.433 123.831 255.377 125.556 263.492C125.897 263.547 125.817 263.517 123.016 263.099C122.92 263.093 122.814 262.754 123.946 265.15C124.862 266.969 125.948 268.696 127.189 270.31C129.467 273.23 130.78 274.119 132.904 275.156Z" fill="#BD8180"/>
<path d="M229.751 356.053C229.722 350.739 228.656 349.837 228.474 341.392C228.426 335.645 229.232 329.924 230.865 324.415C231.917 320.987 233.229 317.644 234.788 314.415C235.111 313.888 234.591 314.354 234.346 314.489L229.556 317.623C229.591 317.603 232.64 308.677 232.65 308.64C232.659 308.604 228.16 310.497 228.2 310.473C228.225 310.99 227.703 303.306 227.631 303.156C227.386 302.475 227.303 302.254 227.166 301.887C224.023 293.254 223.416 283.903 225.416 274.937C227.042 267.66 229.129 264.29 232.322 258.084C232.357 258.064 232.322 258.084 232.071 258.285C227.271 262.311 227.552 262.107 226.231 263.35C221.782 267.644 218.077 272.647 215.268 278.155L215.233 278.175C213.974 273.511 213.574 268.656 214.053 263.85C214.268 261.913 214.308 261.836 214.761 259.214C214.776 259.082 215.271 258.915 211.1 260.855C210.577 261.107 209.565 261.576 209.635 261.55C209.705 261.525 209.524 256.846 209.43 255.684C208.849 246.453 207.063 237.337 204.117 228.568C203.875 227.878 203.665 227.177 203.4 226.5C200.896 219.706 200.393 218.728 198.273 216.171C199.202 220.812 199.669 220.123 202.759 229.024C205.669 237.676 207.436 246.671 208.015 255.78C208.205 258.026 208.224 261.667 208.245 263.796L208.28 263.776L212.903 261.595C212.922 261.507 212.796 262.228 212.609 263.724C211.949 270.166 212.852 275.908 214.867 282.064L216.366 279.045C218.905 274.038 222.193 269.448 226.118 265.435C227.622 263.939 227.743 263.868 227.689 263.907L227.401 264.507C226.864 265.592 226.79 265.859 225.952 267.928C222.318 277.747 221.828 288.453 224.551 298.563C225.013 300.246 225.567 301.902 226.213 303.523L226.868 312.423C226.942 312.55 226.438 312.714 229.843 311.307C230.038 311.193 230.304 311.122 230.237 311.138L227.022 320.492C226.955 320.747 226.653 321.309 227.095 320.92L231.599 317.969C231.331 318.287 229.784 322.844 229.744 322.906C227.415 330.224 226.538 337.927 227.16 345.582C227.183 346.122 227.383 348.07 227.647 349.758C227.883 351.984 228.601 354.132 229.751 356.053Z" fill="#BD8180"/>
<path d="M114.461 205.838C112.994 204.223 111.404 202.724 109.705 201.355C104.908 197.128 101.073 191.921 98.4599 186.085C98.423 186.022 97.4338 183.673 97.498 183.743C97.7867 183.829 98.4412 184.039 99.7079 184.361C99.7079 184.361 99.5947 183.141 99.5927 183.111C99.4043 181.382 99.0663 179.672 98.5824 178.001C98.5868 178.114 98.6162 174.9 98.3428 171.747C98.1022 168.917 97.6839 166.105 97.0904 163.327C96.7276 161.571 96.0519 159.894 95.0954 158.377C95.3366 165.108 97.1142 166.58 97.1364 178.123C97.5229 179.549 97.8292 180.995 98.0537 182.455L95.1869 181.636C95.1869 181.636 95.3042 181.968 95.3085 181.989C96.3924 184.96 96.1989 184.511 97.1328 186.7C99.8299 192.725 103.797 198.096 108.763 202.445C110.371 204.006 112.323 205.168 114.461 205.838Z" fill="#BD8180"/>
<path d="M99.5147 164.667C97.6023 159.252 96.3834 159.565 91.3926 148.494C87.7785 140.275 85.2962 131.604 84.0139 122.718C84.0013 122.617 83.987 122.672 83.987 122.672L84.0038 122.701C82.8881 123.269 85.5254 121.918 85.2514 122.056C85.2145 121.992 80.6448 107.231 80.6784 107.289C81.0625 103.688 81.2228 100.066 81.1582 96.4454C81.0318 86.6194 78.5584 76.0864 76.8003 72.4231C76.4183 71.6913 75.9809 71.0227 75.4764 70.2393C75.5653 71.1811 75.6583 71.9588 75.8092 72.7564C76.2553 75.5463 79.5444 83.9456 79.7441 96.4638C79.8178 100.132 79.6487 103.8 79.2377 107.446C79.3444 107.799 83.1539 120.024 83.88 122.45L85.1276 121.804C85.1276 121.804 82.1612 117.893 81.8472 117.514C81.8406 117.595 82.3867 121.99 83.0481 126.057C84.4564 133.976 86.8011 141.7 90.0329 149.066C91.6115 152.676 93.4082 156.186 95.4129 159.578C96.4515 161.515 97.8426 163.24 99.5147 164.667Z" fill="#BD8180"/>
<path d="M188.925 241.648C191.337 239.004 191.599 238.188 192.962 235.303C193.411 234.347 193.428 234.337 193.626 233.805C198.001 223.493 200.265 212.407 200.284 201.204C200.291 196.978 199.943 193.776 199.782 191.921C199.165 186.348 197.958 180.856 196.181 175.538C195.88 174.589 195.989 174.802 195.659 174.541L194.578 173.733C190.644 170.554 187.682 166.334 186.028 161.555C184.845 158.032 185.362 158.6 183.86 152.584C183.18 155.37 183.328 156.571 183.871 159.25C184.103 160.181 184.383 161.1 184.711 162.002C187.523 170.757 194.824 175.654 194.773 175.606C195.648 178.19 196.388 180.817 196.99 183.477C197.051 183.765 197.834 187.552 197.912 188.331C198.528 192.74 198.379 191.432 198.666 194.739C199.227 201.812 198.858 208.928 197.57 215.904C196.474 221.85 194.73 227.658 192.369 233.223C192.19 233.682 192.181 233.68 191.698 234.71C189.815 238.6 189.599 239.035 188.925 241.648Z" fill="#BD8180"/>
<path d="M178.933 180.983C180.595 177.53 180.628 176.586 181.482 170.332C183.081 156.881 182.233 143.251 178.978 130.101C178.634 128.815 178.303 127.63 178.032 126.548C176.468 121.4 176.601 121.746 176.529 121.873C174.713 123.706 174.125 124.281 174.182 124.247C174.24 124.214 171.409 119.784 170.246 117.914C166.79 114.437 163.601 110.703 160.708 106.746C159.649 105.331 153.423 95.2293 148.27 83.6445C143.927 73.8124 144.667 73.6952 141.972 69.5631C142.286 73.0083 142.756 73.9042 144.07 77.3344C144.917 79.4274 145.519 80.9703 146.962 84.2251C152.017 95.6047 158.439 106.093 159.54 107.567C162.454 111.542 165.658 115.297 169.124 118.801C174.519 127.494 173.869 126.542 174.001 126.465L175.937 124.508C180.494 139.266 181.904 154.817 180.076 170.153C179.067 177.446 178.803 177.338 178.933 180.983Z" fill="#BD8180"/>
<path d="M80.5353 69.9606C80.0873 68.9053 80.2883 69.2884 78.5902 65.1355C78.2301 64.2173 77.9359 63.2746 77.71 62.3146C77.71 62.3146 77.6182 62.3683 78.0083 62.14C78.4799 61.7632 78.8019 61.2307 78.9164 60.638C79.1838 59.2257 78.3299 58.0689 77.8088 56.4015C74.6004 46.5605 80.42 35.0892 79.1212 24.6549C78.9039 22.8769 78.4544 21.1351 77.7844 19.4739C75.2883 20.8418 77.1016 19.8734 76.5565 20.1923C81.9004 27.8517 81.6253 29.5535 85.0903 34.1596C84.8659 32.3838 84.339 30.6596 83.5325 29.0617C81.8464 25.6853 79.9034 22.4435 77.7206 19.3648L76.4725 20.0488C77.0988 21.5854 77.5101 23.201 77.6949 24.8499C78.9718 34.9966 73.1036 46.635 76.4169 56.8923C76.8818 58.3846 77.6506 59.6066 77.4823 60.3984C77.4316 60.6539 77.2941 60.884 77.0932 61.0498C76.9642 61.1715 76.5105 61.1596 76.0564 61.1865C75.8788 61.1594 75.9642 61.279 75.9758 61.3646C76.831 65.117 77.5657 67.4915 80.5353 69.9606Z" fill="#BD8180"/>
<path d="M88.3646 34.2006C90.2262 30.8002 89.6762 32.0849 95.7213 9.57255C105.99 27.3864 100.136 17.2364 102.033 20.518C102.033 20.518 103.237 17.3098 103.226 17.2926C103.226 17.2926 103.226 17.2926 103.247 17.327C103.592 17.616 104 17.8198 104.438 17.9219C104.877 18.0241 105.333 18.0218 105.77 17.9152C107.182 19.8621 108.488 21.8833 109.683 23.97C112.77 29.4417 115.045 35.3337 116.435 41.4606C117.136 44.4243 116.982 45.1616 118.404 48.9214C118.712 46.4992 118.778 45.1509 117.835 41.1421C116.411 34.88 114.083 28.8581 110.926 23.2654C109.52 20.7892 107.966 18.4004 106.271 16.1121C106.248 16.0719 106.191 16.1591 106.151 16.1826C105.378 16.5731 105.385 16.5458 105.148 16.5614C104.84 16.5629 104.538 16.4704 104.284 16.2963C104.06 16.1217 103.884 15.8934 103.773 15.6326C103.557 14.8421 103.347 14.1019 103.152 13.4144C103.093 13.5107 102.883 14.1116 101.764 17.1622C101.74 17.122 95.4638 6.21004 95.2825 5.90011C95.2489 5.84271 94.9121 7.24164 93.4516 12.6571C88.484 30.9951 88.4414 30.3035 88.3646 34.2006Z" fill="#BD8180"/>
<path d="M115.578 27.7014C118.937 33.6405 120.18 34.3694 121.835 40.3043C122.333 42.275 122.618 44.2934 122.685 46.3249C122.724 48.459 122.851 49.6636 123.01 51.5276C123.781 49.8856 124.152 48.0843 124.094 46.2711C124.038 44.1313 123.742 42.0045 123.211 39.9308C122.885 38.691 122.483 37.4724 122.008 36.2818C121.604 35.2752 121.14 34.2936 120.619 33.3423C118.888 30.0944 117.491 28.9167 115.578 27.7014Z" fill="#BD8180"/>
<path d="M124.191 40.0659C125.414 45.5136 125.956 45.0042 127.366 50.7584C130.195 50.6441 128.125 50.7384 128.781 50.7013L128.803 50.5418L128.937 49.4543C128.913 49.5452 133.072 55.4169 137.794 64.3032C139.984 68.4685 140.157 69.0144 142.262 71.5583C141.614 68.424 141.135 67.5257 139.06 63.624C135.727 57.3979 132.045 51.3646 128.033 45.5531C128.006 45.6383 127.435 50.0864 127.374 50.5612L128.788 50.5041C128.702 50.2385 128.423 48.8532 127.765 46.8194C126.536 43.1005 125.847 42.0014 124.191 40.0659Z" fill="#BD8180"/>
<path d="M147.165 222.691C147.027 222.019 146.658 221.417 146.123 220.989L138.21 214.902C137.671 214.497 137.007 214.294 136.334 214.328C136.471 214.999 136.84 215.601 137.376 216.029L145.324 222.111C145.853 222.51 146.503 222.714 147.165 222.691Z" fill="#BD8180"/>
<path d="M82.9027 118.699C82.7821 118.931 82.7175 119.188 82.714 119.45C82.7106 119.711 82.7684 119.97 82.8828 120.205C84.0632 122.321 85.5939 124.22 87.4098 125.824C87.6141 125.983 87.853 126.093 88.1074 126.144C88.3617 126.194 88.6244 126.184 88.8741 126.115C88.7017 124.675 88.5511 125.102 86.9925 123.425C86.3096 122.711 85.6886 121.94 85.1362 121.121C83.8261 119.238 84.2591 119.161 82.9027 118.699Z" fill="#BD8180"/>
<path d="M173.769 149.381C174.947 146.381 175.165 144.897 175.305 137.697C175.393 130.041 175.127 128.324 174.066 125.325C173.375 130.028 173.959 129.092 173.882 137.674C173.682 145.665 173.23 144.92 173.769 149.381Z" fill="#BD8180"/>
<path d="M198.878 232.936C199.413 232.692 199.72 232.505 199.846 232.076L201.343 226.447C201.376 226.225 201.355 225.999 201.283 225.786C201.211 225.574 201.09 225.382 200.929 225.225C200.394 225.469 200.09 225.647 199.966 226.081C199.915 226.258 198.539 231.539 198.469 231.711C198.364 232.15 198.542 232.454 198.878 232.936Z" fill="#BD8180"/>
<path d="M174.33 284.194C174.021 283.529 173.507 282.982 172.862 282.633L163.138 277.583C162.48 277.258 161.736 277.153 161.014 277.285C161.323 277.949 161.838 278.497 162.482 278.845L172.207 283.895C172.864 284.221 173.608 284.326 174.33 284.194Z" fill="#BD8180"/>
<path d="M169.948 274.769C170.092 274.292 170.146 274.014 169.967 273.841C169.873 273.758 167.608 271.77 167.511 271.696C167.319 271.539 167.047 271.628 166.59 271.834C166.449 272.317 166.396 272.595 166.574 272.768C166.663 272.854 168.93 274.833 169.025 274.917C169.223 275.07 169.502 274.969 169.948 274.769Z" fill="#BD8180"/>
<path d="M169.027 329.169C170.069 329.89 171.238 330.406 172.473 330.689C174.831 331.394 177.225 331.971 179.646 332.417C181.801 332.797 182.319 332.879 183.915 332.685C181.58 331.786 181.976 332.279 176.352 331C171.861 329.945 171.646 329.447 169.027 329.169Z" fill="#BD8180"/>
<path d="M151.417 317.014C152.95 318.066 152.663 317.826 160.275 320.699C162.357 321.468 162.703 321.651 164.387 321.845C162.97 320.871 162.569 320.79 160.528 320.027C153.078 317.259 153.297 317.224 151.417 317.014Z" fill="#BD8180"/>
<path d="M152.007 314.835C152.878 315.773 153.965 316.483 155.174 316.904C155.474 317.036 156.388 317.388 156.757 317.518C159.108 318.323 159.854 318.295 161.003 318.193C158.722 317.216 158.987 317.524 156.993 316.841C154.122 315.817 154.563 315.69 152.007 314.835Z" fill="#BD8180"/>
<path d="M157.842 275.812C156.802 275.112 155.679 274.545 154.498 274.125C148.855 271.747 143.594 268.551 138.882 264.64C137.333 263.374 137.086 262.979 135.467 262.093C136.172 263.167 136.443 263.563 138.421 265.195C143.192 269.154 148.518 272.392 154.227 274.807C155.357 275.37 156.584 275.711 157.842 275.812Z" fill="#BD8180"/>
<path d="M176.39 288.412C175.61 287.398 174.604 286.58 173.452 286.025C173.055 285.779 171.861 285.161 171.366 284.934C169.137 283.888 168.399 283.812 167.237 283.76C169.267 284.953 169.148 284.683 171.06 285.583C173.619 286.744 173.862 287.318 176.39 288.412Z" fill="#BD8180"/>
<path d="M178.614 292.45C178.106 291.753 178.148 291.891 175.272 290.807C172.22 289.658 172.458 289.657 171.674 289.831C172.182 290.527 172.137 290.384 175.021 291.47C178.068 292.623 177.829 292.624 178.614 292.45Z" fill="#BD8180"/>
<path d="M193.229 313.969C191.179 313.019 191.668 313.434 185.799 311.906C180.217 310.356 180.555 310.105 178.186 309.873C179.412 310.651 179.91 311.029 185.615 312.592C191.212 314.063 191.715 314.053 193.229 313.969Z" fill="#BD8180"/>
<path d="M134.342 287.959C135.418 289.233 135.619 289.392 138.021 290.984C144.181 295.037 150.905 298.159 157.976 300.249C160.435 300.991 160.819 300.989 162.188 300.998C160.599 300.139 159.886 300.079 158.175 299.563C151.173 297.492 144.515 294.399 138.417 290.383C136.279 288.968 135.948 288.599 134.342 287.959Z" fill="#BD8180"/>
<path d="M147.257 293.277C149.263 294.415 148.965 294.011 153.57 295.747C158.06 297.55 157.748 297.794 160.113 298.36C159.465 297.748 158.725 297.242 157.919 296.862C155.647 295.779 153.314 294.829 150.932 294.016C149.764 293.541 148.518 293.29 147.257 293.277Z" fill="#BD8180"/>
<path d="M185.678 336.646C186.796 337.244 188.015 337.631 189.272 337.787C194.515 338.804 199.842 339.322 205.181 339.334C207.273 339.328 207.769 339.361 209.436 338.879C207.817 338.547 207.442 338.604 205.185 338.616C199.885 338.6 194.599 338.081 189.398 337.066C188.183 336.756 186.932 336.615 185.678 336.646Z" fill="#BD8180"/>
<path d="M198.573 339.664C200.376 340.111 200.247 340.01 206.379 340.012C208.533 340.008 208.956 340.045 210.634 339.649C209.004 339.246 208.643 339.273 206.382 339.294C200.332 339.313 200.388 339.211 198.573 339.664Z" fill="#BD8180"/>
<path d="M195.26 304.237C195.588 303.189 195.787 302.105 195.852 301.009C196.45 295.511 198.014 290.163 200.471 285.209C203.047 279.896 205.577 277.915 206.249 274.363C206.333 273.905 206.319 273.433 206.209 272.98C206.099 272.527 205.895 272.102 205.61 271.732C206.29 276.843 202.559 278.51 198.885 286.908C197.143 290.864 195.945 295.037 195.323 299.315C194.991 302.106 194.924 302.477 195.26 304.237Z" fill="#BD8180"/>
<path d="M192.614 300.346C192.97 299.147 193.19 297.912 193.271 296.664C193.435 295.351 193.738 293.71 193.978 292.699C194.972 288.473 195.738 287.716 196.202 285.087C195.37 286.152 195.1 286.572 194.304 288.925C193.477 291.412 192.891 293.974 192.556 296.574C192.316 297.822 192.336 299.106 192.614 300.346Z" fill="#BD8180"/>
<path d="M180.06 278.414C180.428 275.371 179.74 275.011 179.852 268.305C180.037 261.301 180.641 261.148 180.384 258.248C180.026 259.056 179.793 259.915 179.694 260.793C179.127 265.408 179.015 270.066 179.359 274.703C179.36 275.973 179.598 277.231 180.06 278.414Z" fill="#BD8180"/>
<path d="M182.11 262.515C183.056 259.866 182.813 259.253 183.777 256.609C184.625 254.11 184.86 254.512 185.727 251.701C185.069 252.313 184.532 253.042 184.143 253.853C183.391 255.416 182.8 257.053 182.38 258.737C181.997 259.958 181.904 261.252 182.11 262.515Z" fill="#BD8180"/>
<path d="M176.28 199.169C175.56 200.73 175.574 201.215 174.961 203.747C171.962 216.287 165.464 227.639 165.454 241.366C165.438 244.49 165.861 247.601 166.71 250.608C167.668 253.469 167.888 254.056 169.124 255.498C168.941 254.635 168.675 253.793 168.33 252.981C161.797 235.432 171.881 219.624 175.654 203.919C176.331 201.073 176.376 200.808 176.28 199.169Z" fill="#BD8180"/>
<path d="M170.089 259.964C170.153 258.712 170.06 257.457 169.813 256.228C168.658 247.342 170.134 243.243 169.934 239.901C169.527 240.705 169.254 241.571 169.123 242.463C168.767 244.942 168.602 247.445 168.627 249.949C168.648 252.088 168.796 254.224 169.073 256.345C169.173 257.606 169.518 258.835 170.089 259.964Z" fill="#BD8180"/>
<path d="M184.301 199.661C184.909 198.45 185.152 198.246 186.514 190.531C187.566 184.466 188.281 178.349 188.655 172.205C188.713 171.319 188.642 170.429 188.442 169.564C188.164 170.406 187.998 171.28 187.946 172.166C186.69 190.713 184.204 195.889 184.301 199.661Z" fill="#BD8180"/>
<path d="M189.224 182.906C189.884 181.815 190.291 180.589 190.414 179.32C190.722 177.455 190.865 175.567 190.841 173.677C190.782 171.115 190.565 170.572 190.134 169.468C189.849 172.378 190.516 174.491 189.695 179.248C189.421 180.449 189.264 181.674 189.224 182.906Z" fill="#BD8180"/>
<path d="M114.355 230.261C115.159 231.793 115.333 232 117.313 234C122.918 239.643 129.566 244.142 136.886 247.248C137.705 247.601 138.574 247.821 139.462 247.898C137.153 246.229 135.159 246.125 129.555 242.708C125.279 240.132 121.338 237.038 117.819 233.496C116.018 231.668 115.756 231.221 114.355 230.261Z" fill="#BD8180"/>
<path d="M118.471 238.192C118.493 238.571 118.649 238.93 118.91 239.206C120.263 240.565 121.888 241.623 123.677 242.311C124.032 242.442 124.422 242.441 124.776 242.307C124.076 241.492 124.078 241.838 122.539 241.012C121.836 240.648 121.172 240.213 120.556 239.715C119.189 238.642 119.496 238.509 118.471 238.192Z" fill="#BD8180"/>
<path d="M103.228 197.71C103.635 198.92 104.305 200.025 105.19 200.946C107.433 203.62 110.082 205.926 113.039 207.779C115.162 209.103 115.823 209.232 116.983 209.478C114.543 207.492 113.003 207.361 109.031 203.876C107.857 202.823 106.757 201.69 105.738 200.486C104.997 199.479 104.156 198.548 103.228 197.71Z" fill="#BD8180"/>
<path d="M144.488 220.366C143.782 219.311 142.879 218.403 141.829 217.691C137.657 214.429 133.063 211.744 128.172 209.711C126.168 208.919 125.758 208.704 124.047 208.558C125.419 209.442 125.69 209.484 127.897 210.373C132.728 212.379 137.265 215.029 141.386 218.251C142.327 219.083 143.369 219.794 144.488 220.366Z" fill="#BD8180"/>
<path d="M148.342 228.52C148.48 228.967 148.642 229.407 148.828 229.838L149.27 229.502C148.191 228.038 143.913 223.992 138.872 220.786C137.025 219.616 136.492 219.351 135.003 218.951C136.397 220.215 136.66 220.23 138.486 221.389C144.776 225.413 147.678 228.939 148.849 229.887L149.292 229.551C148.996 229.188 148.679 228.844 148.342 228.52Z" fill="#BD8180"/>
<path d="M142.148 210.456C141.094 208.8 142.075 209.898 129.073 197.574C127.51 196.1 127.237 195.752 125.739 194.902C126.662 196.35 127 196.584 128.579 198.086C141.594 210.418 140.44 209.498 142.148 210.456Z" fill="#BD8180"/>
<path d="M141.574 206.461C140.702 204.799 141.219 205.537 133.029 196.292C131.603 194.684 131.358 194.318 129.938 193.339C130.733 194.869 131.045 195.126 132.497 196.765C140.687 205.971 140.025 205.419 141.574 206.461Z" fill="#BD8180"/>
<path d="M141.86 197.366C142.446 195.736 142.363 195.592 142.736 191.992C144.045 179.596 146.233 167.31 149.283 155.225C149.834 153.046 149.976 152.724 149.996 151.033C149.175 152.538 149.121 152.947 148.59 155.053C145.536 167.171 143.345 179.491 142.031 191.919C141.684 195.327 141.584 195.578 141.86 197.366Z" fill="#BD8180"/>
<path d="M140.946 187.761C141.219 186.536 141.324 185.28 141.257 184.027C141.282 182.318 141.368 180.11 141.566 178.13C142.285 171.053 142.808 171.433 142.733 168.541C142.321 169.321 142.033 170.16 141.878 171.029C141.066 175.306 140.628 179.645 140.57 183.998C140.459 185.265 140.587 186.541 140.946 187.761Z" fill="#BD8180"/>
<path d="M216.154 337.776C216.303 336.148 216.192 335.827 215.819 332.794C215.319 328.264 215.191 323.7 215.438 319.149C216.175 307.363 217.911 304.867 217.935 301.433C217.085 303.008 217.075 303.307 216.572 305.474C214.469 315.03 214.044 324.88 215.318 334.582C215.406 335.688 215.689 336.769 216.154 337.776Z" fill="#BD8180"/>
<path d="M213.641 317.789C214.389 315.487 214.016 315.89 214.819 311.707C215.734 307.373 215.966 307.954 216.221 305.363C215.706 306.091 215.315 306.9 215.065 307.757C214.461 309.812 214.001 311.906 213.688 314.025C213.416 315.264 213.4 316.544 213.641 317.789Z" fill="#BD8180"/>
<path d="M222.228 344.723C222.566 341.705 221.574 339.088 222.389 331.531C222.654 329.35 222.784 329.151 222.664 327.287C222.034 328.673 221.931 329.18 221.675 331.456C221.326 334.638 221.264 337.846 221.491 341.04C221.49 342.304 221.741 343.556 222.228 344.723Z" fill="#BD8180"/>
<path d="M179.374 352.33C181.317 352.834 179.585 352.692 199.621 352.934C204.005 352.989 206.011 353.009 208.173 353.069C216.304 353.289 215.98 353.895 218.926 353.65C218.118 353.268 217.255 353.019 216.368 352.912C211.758 352.274 204.384 352.281 199.622 352.225C179.72 351.974 181.369 351.856 179.374 352.33Z" fill="#BD8180"/>
<path d="M193.574 349.246C195.729 349.888 194.578 349.513 206.412 350.402C217.838 351.383 216.749 351.588 219.008 351.291C217.407 350.687 217.051 350.71 214.821 350.466C211.14 350.085 208.72 349.898 206.475 349.694C195.123 348.84 195.103 348.937 193.574 349.246Z" fill="#BD8180"/>
<path d="M202.136 348.188C203.944 348.54 203.561 348.464 211.596 348.046C213.74 347.932 214.177 347.969 215.824 347.467C214.164 347.144 213.806 347.216 211.555 347.331C203.654 347.755 203.938 347.635 202.136 348.188Z" fill="#BD8180"/>
<path d="M223.25 359.171C222.471 358.725 221.618 358.423 220.733 358.279C217.356 357.742 213.91 357.843 210.571 358.577C208.746 358.971 206.965 359.548 205.256 360.3C204.438 360.666 203.694 361.179 203.061 361.815C205.642 361.145 206.662 360.163 210.724 359.273C217.065 357.921 220.132 359.2 223.25 359.171Z" fill="#BD8180"/>
<path d="M224.522 362.61C222.688 362.713 223.039 362.708 215.923 364.868C213.867 365.501 213.43 365.556 211.964 366.46C213.644 366.371 213.977 366.215 216.135 365.56C223.118 363.409 222.935 363.57 224.522 362.61Z" fill="#BD8180"/>
<path d="M225.445 362.687C224.262 362.227 223 362.007 221.731 362.04C218.453 361.897 215.168 362.049 211.917 362.497C209.446 362.841 209 363.001 207.776 363.594C209.658 363.664 209.865 363.505 212.008 363.206C215.217 362.761 218.459 362.61 221.695 362.754C222.943 362.884 224.202 362.862 225.445 362.687Z" fill="#BD8180"/>
<path d="M226.294 365.572C225.015 365.706 223.795 366.183 222.764 366.951C222.409 367.159 221.75 367.653 221.634 367.744C220.855 368.327 220.125 368.973 219.452 369.675C218.822 370.323 218.338 371.097 218.032 371.947C218.712 371.395 219.357 370.801 219.964 370.169C222.762 367.407 223.472 367.554 226.294 365.572Z" fill="#BD8180"/>
<path d="M227.361 363.053C226.083 363.012 224.813 363.281 223.662 363.838C220.52 365.123 217.68 367.047 215.322 369.488C214.694 370.13 214.199 370.888 213.863 371.721C214.568 371.194 215.229 370.612 215.84 369.978C218.127 367.612 220.885 365.751 223.936 364.517C225.113 364.117 226.258 363.627 227.361 363.053Z" fill="#BD8180"/>
<path d="M224.741 361.404C224.589 361.145 224.464 361.011 224.239 360.981L221.3 360.605C221.069 360.578 220.924 360.686 220.699 360.894C220.847 361.147 220.972 361.282 221.195 361.321L224.14 361.693C224.379 361.707 224.518 361.603 224.741 361.404Z" fill="#BD8180"/>
<path d="M229.213 366.322C227.681 366.587 226.909 367.532 226.418 368.997C226.057 370.02 226.105 371.143 226.55 372.133C226.759 372.522 227.05 372.862 227.403 373.129C226.851 371.963 226.73 370.64 227.061 369.394C227.393 368.148 228.155 367.059 229.213 366.322Z" fill="#BD8180"/>
<path d="M232.295 360.335C232.827 359.195 233.549 358.154 234.428 357.254C235.499 356.384 236.734 355.737 238.06 355.352C237.151 355.144 236.197 355.272 235.375 355.714C234.857 355.991 234.376 356.332 233.943 356.729C232.846 357.841 232.25 358.705 232.295 360.335Z" fill="#BD8180"/>
<path d="M230.135 356.63C230.251 356.644 230.37 356.631 230.48 356.592C230.591 356.553 230.691 356.488 230.772 356.403L232.643 354.007C232.786 353.816 232.765 353.635 232.71 353.344C232.593 353.328 232.475 353.341 232.364 353.38C232.253 353.42 232.153 353.485 232.072 353.57L230.196 355.97C230.078 356.124 230.076 356.333 230.135 356.63Z" fill="#BD8180"/>
<path d="M87.4662 127.763C88.3547 128.651 89.3506 129.425 90.4308 130.066C91.566 130.835 92.9821 131.886 93.8129 132.555C98.5322 136.435 97.7214 136.34 99.9975 137.781C99.1983 136.415 98.858 136.044 97.2144 134.525C95.2095 132.69 93.0757 131.001 90.8295 129.47C89.8288 128.69 88.6867 128.11 87.4662 127.763Z" fill="#BD8180"/>
<path d="M85.7236 124.653C88.4114 126.509 91.3899 126.808 97.7209 131.994C99.2868 133.301 100.754 134.722 102.11 136.245C102.693 136.91 103.348 137.509 104.063 138.03C103.718 137.206 103.239 136.445 102.645 135.777C101.27 134.226 99.7798 132.78 98.1886 131.451C95.4817 129.192 92.4952 127.291 89.3029 125.794C88.2015 125.171 86.9827 124.782 85.7236 124.653Z" fill="#BD8180"/>
<path d="M125.378 160.059C124.368 158.477 124.706 158.911 117.675 152.238C116.118 150.761 115.839 150.416 114.347 149.563C115.274 151.016 115.605 151.254 117.185 152.756C124.174 159.423 123.716 159.128 125.378 160.059Z" fill="#BD8180"/>
<path d="M124.127 161.87C123.953 161.008 123.969 161.192 121.705 158.81C119.441 156.429 119.604 156.457 118.771 156.243C118.948 157.087 118.923 156.925 121.192 159.303C123.462 161.681 123.282 161.663 124.127 161.87Z" fill="#BD8180"/>
<path d="M108.49 172.004C107.314 170.573 107.527 170.857 101.232 166.181C99.4964 164.885 99.1882 164.595 97.6038 163.928C98.6987 165.259 99.066 165.453 100.8 166.757C107.113 171.4 106.795 171.278 108.49 172.004Z" fill="#BD8180"/>
<path d="M101.274 172.15C101.396 171.91 101.449 171.763 101.367 171.611L100.219 169.648C100.128 169.493 99.9685 169.47 99.6995 169.458C99.5725 169.702 99.5196 169.849 99.6046 170.007L100.753 171.97C100.845 172.101 101 172.141 101.274 172.15Z" fill="#BD8180"/>
<path d="M133.859 189.18C132.85 187.652 132.709 187.65 129.67 184.851C128.088 183.397 127.806 183.061 126.278 182.213C127.208 183.618 127.504 183.808 129.17 185.352C132.164 188.1 132.234 188.298 133.859 189.18Z" fill="#BD8180"/>
<path d="M112.91 117.884C111.826 116.346 112.339 116.909 103.924 109.621C102.323 108.2 102.013 107.881 100.477 107.1C101.447 108.481 101.743 108.67 103.453 110.158C111.84 117.424 111.227 117.035 112.91 117.884Z" fill="#BD8180"/>
<path d="M110.107 111.289C109.246 109.673 108.98 109.521 107.146 107.466C105.706 105.874 105.462 105.508 104.037 104.547C104.825 106.027 105.09 106.242 106.617 107.945C108.423 109.939 108.574 110.275 110.107 111.289Z" fill="#BD8180"/>
<path d="M91.1982 86.303C90.3859 84.467 91.092 85.5948 80.6455 72.084C79.3266 70.3826 79.1107 70.0004 77.7563 68.9361C78.4361 70.4798 78.6834 70.705 80.0752 72.5178C90.5634 86.0735 89.6517 85.0815 91.1982 86.303Z" fill="#BD8180"/>
<path d="M87.4764 78.1649C86.9706 76.4578 86.8369 76.3742 84.8422 72.9649C84.3931 72.1866 83.8387 71.4739 83.1949 70.847C83.4238 71.7163 83.7715 72.5499 84.2283 73.3241C86.209 76.6568 86.2409 76.8693 87.4764 78.1649Z" fill="#BD8180"/>
<path d="M125.56 153.789C125.889 152.576 126.056 151.326 126.057 150.07C126.382 144.749 127.314 139.484 128.836 134.376C129.504 132.213 129.674 131.859 129.823 130.231C128.911 131.62 128.806 132.02 128.146 134.171C126.623 139.341 125.691 144.668 125.367 150.049C125.198 151.297 125.264 152.565 125.56 153.789Z" fill="#BD8180"/>
<path d="M125.074 140.675C125.773 139.026 125.717 138.866 126.308 135.254C126.619 133.153 126.772 132.717 126.629 130.998C125.953 132.58 125.947 132.992 125.597 135.146C125.079 138.485 124.914 138.796 125.074 140.675Z" fill="#BD8180"/>
<path d="M128.135 88.1828C128.788 86.5217 128.755 86.2408 129.108 83.461C130.056 75.9723 130.707 67.9489 131.111 60.1086C131.21 57.9475 131.289 57.5697 130.932 55.8528C130.12 58.6389 130.759 58.4807 129.604 71.7375C128.497 85.0895 127.83 85.2645 128.135 88.1828Z" fill="#BD8180"/>
<path d="M125.516 71.2401C126.049 69.5183 125.944 70.2196 126.704 59.5129C126.851 57.3695 126.945 56.9371 126.649 55.246C126.125 56.839 126.154 57.1917 125.998 59.4788C125.238 70.0008 125.188 69.3753 125.516 71.2401Z" fill="#BD8180"/>
<path d="M123.108 63.4506C123.549 61.6514 123.443 61.2978 123.447 58.9224C123.434 56.7806 123.479 56.3455 123.071 54.6736C122.663 56.3455 122.74 56.7397 122.726 58.928C122.756 61.2833 122.653 61.6596 123.108 63.4506Z" fill="#BD8180"/>
<path d="M157.88 124.555C158.588 122.855 158.408 123.43 159.823 114.12C160.125 112.002 160.256 111.555 160.102 109.858C159.444 111.444 159.439 111.856 159.113 114.011C157.744 123.125 157.696 122.66 157.88 124.555Z" fill="#BD8180"/>
<path d="M156.294 116.316C156.934 114.539 156.801 114.786 157.595 107.311C157.818 105.177 157.921 104.747 157.681 103.046C157.106 104.631 157.124 104.99 156.885 107.241C156.11 114.659 156.031 114.443 156.294 116.316Z" fill="#BD8180"/>
<path d="M96.2515 51.2353C96.7963 49.3756 96.6406 50.5839 97.2337 34.9054C97.313 32.7635 97.3884 32.3264 97.0477 30.6382C96.5724 32.2876 96.6113 32.6963 96.5283 34.8713C95.9346 50.4961 95.8516 49.3274 96.2515 51.2353Z" fill="#BD8180"/>
<path d="M99.4657 42.2746C99.7522 40.4737 99.6549 40.3996 99.3154 36.1992C99.1266 34.0599 99.1485 33.6234 98.5973 31.9967C98.3451 33.6851 98.4135 33.9995 98.602 36.2699C98.9519 40.3564 98.8712 40.5346 99.4657 42.2746Z" fill="#BD8180"/>
</g>
<defs>
<clipPath id="clip0_96_319">
<rect width="122" height="474" fill="white" transform="translate(0 61.6089) rotate(-30.3307)"/>
</clipPath>
</defs>
</svg>
