<svg width="48" height="48" viewBox="0 0 48 48" fill="none" xmlns="http://www.w3.org/2000/svg">
<g id="fi_5679844" clip-path="url(#clip0_2_547)">
<g id="Group">
<path id="Vector" d="M46.5938 17.1378H38.3944L27.9244 27.6078C27.5325 27.9997 27.0403 28.3287 26.4984 28.5387L23.3063 30.1268H30.0206C33.3516 30.1268 36.06 32.84 36.0525 36.1718C36.0487 37.9484 37.5206 39.3772 39.2972 39.3772H42.2672C43.0238 39.3772 43.6753 39.9584 43.7109 40.714C43.7494 41.5222 43.1063 42.1897 42.3066 42.1897H39.2719C36.8241 42.1897 34.7128 40.7253 33.7678 38.6262C33.4294 37.8725 33.24 37.0362 33.24 36.1578C33.24 34.3831 31.7962 32.9393 30.0206 32.9393H5.69156C4.89187 32.9393 4.24875 32.2718 4.28719 31.4637C4.32281 30.7081 4.97438 30.1268 5.73094 30.1268H14.8556C14.8959 29.9478 14.9606 29.7687 15.0525 29.5831L19.2019 21.2422C19.4053 20.7162 19.7316 20.2193 20.1328 19.8162L22.8122 17.1368H1.40625C0.632812 17.1368 0 17.7697 0 18.5431V46.3334C0 47.11 0.629625 47.7397 1.40625 47.7397L46.5938 47.7406C47.3704 47.7406 48 47.111 48 46.3343V18.544C48 17.7706 47.3672 17.1378 46.5938 17.1378Z" fill="#810021"/>
<path id="Vector_2" d="M18.2306 29.5109L24.0759 26.6028L21.1378 23.6656L18.2306 29.5109Z" fill="#810021"/>
<path id="Vector_3" d="M26.5031 25.0521C39.7793 11.776 36.3637 15.1918 43.5094 8.04495L39.6956 4.2312C39.4043 4.52258 22.964 20.9629 22.6884 21.2384L26.5031 25.0521Z" fill="#810021"/>
<path id="Vector_4" d="M47.1256 4.42912C47.6002 3.95427 47.6002 3.18449 47.1255 2.70974L45.0321 0.615649C44.5572 0.140712 43.7872 0.140618 43.3123 0.615556L41.685 2.24277L45.4987 6.05652L47.1256 4.42912Z" fill="#810021"/>
</g>
</g>
<defs>
<clipPath id="clip0_2_547">
<rect width="48" height="48" fill="white"/>
</clipPath>
</defs>
</svg>
