<svg width="48" height="48" viewBox="0 0 48 48" fill="none" xmlns="http://www.w3.org/2000/svg">
<g id="fi_5679774" clip-path="url(#clip0_2_559)">
<g id="Group">
<path id="Vector" d="M29.4431 23.0962H26.3382C26.2313 24.3533 25.1738 25.3433 23.8885 25.3433H19.6716C18.3141 25.3433 17.2107 24.2399 17.2107 22.8833V7.0275C17.2107 5.67094 18.3141 4.56656 19.6716 4.56656H23.8885C25.1728 4.56656 26.2303 5.55656 26.3382 6.81375H32.6053V2.8125C32.6053 1.26187 31.3435 0 29.7928 0H2.81262C1.262 0 0.00012207 1.26187 0.00012207 2.8125V36.0168H8.67856C10.2114 36.0168 11.4573 37.2637 11.4573 38.7955V47.9999H29.7938C29.5678 47.459 29.4431 46.8655 29.4431 46.244V23.0962Z" fill="#810021"/>
<path id="Vector_2" d="M8.64472 47.9999V38.8293H0.00012207L8.64472 47.9999Z" fill="#810021"/>
<path id="Vector_3" d="M20.4919 7.37909C20.233 7.37909 20.0231 7.589 20.0231 7.84784V22.0622C20.0231 22.3211 20.233 22.531 20.4919 22.531H23.0672C23.326 22.531 23.5359 22.3211 23.5359 22.0622V7.84784C23.5359 7.589 23.326 7.37909 23.0672 7.37909H20.4919Z" fill="#810021"/>
<path id="Vector_4" d="M47.5312 7.37909H44.9559C44.697 7.37909 44.4871 7.589 44.4871 7.84784V22.0622C44.4871 22.3211 44.697 22.531 44.9559 22.531H47.5312C47.79 22.531 47.9999 22.3211 47.9999 22.0622V7.84784C47.9999 7.5889 47.7901 7.37909 47.5312 7.37909Z" fill="#810021"/>
<path id="Vector_5" d="M26.3484 20.2836H41.6747V9.62622C41.0102 9.62622 27.0324 9.62622 26.3484 9.62622V20.2836Z" fill="#810021"/>
<path id="Vector_6" d="M32.2557 46.2439C32.2557 47.9157 34.4011 48.6505 35.4179 47.2949C35.6382 47.0024 35.7685 46.6386 35.7685 46.2439V23.0961C35.0398 23.0961 32.9564 23.0961 32.2557 23.0961V46.2439Z" fill="#810021"/>
</g>
</g>
<defs>
<clipPath id="clip0_2_559">
<rect width="48" height="48" fill="white"/>
</clipPath>
</defs>
</svg>
