<svg width="48" height="48" viewBox="0 0 48 48" fill="none" xmlns="http://www.w3.org/2000/svg">
<g id="fi_5679332" clip-path="url(#clip0_2_523)">
<g id="Group">
<path id="Vector" d="M24.0056 18.3049C24.0056 11.9017 28.8547 6.61031 35.0731 5.91009V2.81212C35.0731 1.26169 33.8114 0 32.261 0H4.67147C3.12019 0 1.85944 1.26169 1.85944 2.81212V45.181C1.85944 46.7315 3.12019 47.9932 4.67156 47.9932C24.6448 47.9932 23.4721 48.0086 23.6176 47.9932V38.7901C23.6176 37.2584 24.8643 36.0117 26.396 36.0117H35.0732V30.6997C28.8547 29.9985 24.0056 24.7071 24.0056 18.3049ZM6.87806 6.59063H21.8412C22.6183 6.59063 23.2473 7.22053 23.2473 7.99669C23.2473 8.77378 22.6183 9.40275 21.8412 9.40275H6.87806C6.1019 9.40275 5.472 8.77378 5.472 7.99669C5.472 7.22053 6.1019 6.59063 6.87806 6.59063ZM6.87806 14.5095H18.7845C19.5616 14.5095 20.1906 15.1394 20.1906 15.9156C20.1906 16.6917 19.5616 17.3216 18.7845 17.3216H6.87806C6.1019 17.3216 5.472 16.6917 5.472 15.9156C5.472 15.1394 6.1019 14.5095 6.87806 14.5095ZM6.87806 22.4284H18.7845C19.5616 22.4284 20.1906 23.0573 20.1906 23.8344C20.1906 24.6106 19.5616 25.2405 18.7845 25.2405H6.87806C6.1019 25.2405 5.472 24.6106 5.472 23.8344C5.472 23.0573 6.1019 22.4284 6.87806 22.4284ZM18.7845 41.0772H6.87806C6.1019 41.0772 5.472 40.4473 5.472 39.6712C5.472 38.895 6.1019 38.2651 6.87806 38.2651H18.7845C19.5616 38.2651 20.1906 38.895 20.1906 39.6712C20.1906 40.4473 19.5616 41.0772 18.7845 41.0772ZM26.1635 33.1583H6.87806C6.1019 33.1583 5.472 32.5294 5.472 31.7523C5.472 30.9761 6.1019 30.3462 6.87806 30.3462H26.1635C26.9396 30.3462 27.5695 30.9761 27.5695 31.7523C27.5695 32.5294 26.9395 33.1583 26.1635 33.1583Z" fill="#810021"/>
<path id="Vector_2" d="M26.4296 47.9932L35.0731 38.8239C34.0062 38.8239 27.2713 38.8239 26.4296 38.8239V47.9932Z" fill="#810021"/>
<path id="Vector_3" d="M35.0731 8.74661C30.4097 9.42902 26.8177 13.455 26.8177 18.3049C26.8177 24.1795 32.0515 28.7214 37.8852 27.8641C42.5486 27.1817 46.1406 23.1548 46.1406 18.3049C46.1406 12.3776 40.8444 7.88683 35.0731 8.74661ZM41.2457 16.9851C34.6108 22.5391 37.9851 19.7135 35.5165 21.7807C34.8907 22.309 33.9195 22.1894 33.4487 21.4882L31.4502 18.5243C31.0162 17.8803 31.1858 17.0066 31.8298 16.5727C32.4738 16.1387 33.3474 16.3083 33.7814 16.9523C34.1655 17.5205 33.9337 17.1771 34.9081 18.6226C35.0828 18.4766 39.2248 15.0086 39.4403 14.8282C40.0355 14.3305 40.9222 14.4092 41.4209 15.0044C41.9197 15.5996 41.8409 16.4864 41.2457 16.9851Z" fill="#810021"/>
</g>
</g>
<defs>
<clipPath id="clip0_2_523">
<rect width="48" height="48" fill="white"/>
</clipPath>
</defs>
</svg>
